<svg width="646" height="668" viewBox="0 0 646 668" fill="none" xmlns="http://www.w3.org/2000/svg">
<path d="M582.765 145.718C579.283 145.718 574.297 145.718 571.552 140.276C569.302 135.811 570.062 128.614 565.828 125.397C570.062 126.631 574.54 126.631 578.022 126.631C589.242 126.631 599.96 118.949 608.186 118.949C613.606 118.949 615.354 122.423 615.354 125.882C615.362 136.803 593.24 145.718 582.765 145.718ZM588.238 173.728C614.107 173.728 637.795 153.157 637.795 135.069C637.795 126.631 633.796 119.698 623.587 118.457C625.328 120.69 626.073 122.423 626.073 126.389C626.073 140.027 605.206 155.148 582.522 155.148C574.297 155.148 571.803 160.839 571.803 163.813C571.803 170.761 578.538 173.728 588.238 173.728ZM586.254 184.142C589.5 207.679 625.328 239.412 635.035 238.663C641.527 238.118 644.013 207.928 644.013 184.142C644.013 170.511 644.766 159.848 637.536 157.365C626.065 180.426 595.977 185.133 586.254 184.142Z" fill="#0066CC"/>
<path d="M25.8914 340.038C34.3447 340.038 32.6039 288.476 46.2948 288.476C49.5408 288.476 50.5366 291.7 50.5366 295.666C50.5366 307.314 44.8048 324.425 44.8048 333.833C44.8048 338.548 46.0515 340.038 48.2941 340.038C54.2767 340.038 64.7293 283.27 74.931 283.27C78.1694 283.27 79.6593 286.494 79.6593 289.718C79.6593 301.615 64.486 335.815 64.486 345.48C64.486 346.971 64.9725 348.205 66.2268 348.205C72.4528 348.205 84.897 321.443 88.8728 308.063C91.1153 301.115 94.1028 297.392 96.8471 297.392C99.3329 297.392 101.583 300.124 101.583 305.83C101.583 319.211 89.1236 350.687 78.1693 371.764C69.7161 388.119 56.5193 411.649 56.5193 424.787C56.5193 431.485 57.7432 438.417 67.4583 446.848C51.5249 445.857 45.0557 444.373 39.0882 431.984C12.4437 484.772 88.1278 479.573 62.2359 526.397C57.4999 517.989 20.1672 509.308 20.1672 460.236C20.1672 417.854 57.4999 393.069 57.4999 375.48C57.4999 372.014 56.2684 369.04 53.03 366.315C44.8048 359.36 44.554 353.676 38.0848 353.676C33.364 353.676 27.617 364.575 33.5997 374.239C35.599 377.463 37.3398 379.446 37.3398 382.42C37.3398 389.353 26.3779 407.933 18.6697 407.933C10.9462 407.933 4.98633 388.876 4.98633 358.126C4.98633 330.851 11.197 303.355 18.9205 303.355C21.1555 303.355 21.9004 304.839 21.9004 306.829C21.9004 310.053 20.9122 316.486 20.9122 327.392C20.9122 339.039 23.6489 340.038 25.8914 340.038Z" fill="#0066CC"/>
<path d="M89.3596 412.648C99.8273 412.648 108.531 404.951 108.531 387.877V362.584C108.531 352.919 109.284 342.021 115.761 334.324C115.008 337.556 115.008 341.022 115.008 344.246C115.008 365.566 126.951 380.195 126.951 400.758C126.951 408.432 124.708 412.655 118.748 412.655C113.017 412.655 113.518 407.448 112.264 407.448C111.276 407.448 109.778 410.665 109.778 414.139C109.778 419.345 113.511 427.519 123.963 427.519C132.933 427.519 140.14 419.345 140.14 410.173C140.14 387.884 122.717 363.084 122.717 339.297C122.717 328.883 125.453 321.95 127.696 316.486C127.696 365.816 169.764 401.749 169.764 422.312C169.764 427.027 166.283 430.751 161.053 430.751C155.328 430.751 152.584 426.278 152.584 422.804C152.584 421.071 152.333 420.579 151.588 420.579C150.106 420.579 145.621 425.536 145.621 431.992C145.621 440.158 152.333 450.087 164.785 450.087C178.963 450.087 186.686 438.175 186.686 427.519C186.686 401.507 135.655 362.092 135.655 319.968C135.655 312.77 136.886 301.123 142.132 292.208C109.269 313.262 99.0671 341.28 99.0671 365.816C99.0671 387.135 98.3222 397.776 87.3679 397.776C81.6361 397.776 80.1461 392.584 78.1468 392.584C76.6569 392.584 75.9043 397.042 75.9043 398.276C75.9195 407.441 82.6471 412.648 89.3596 412.648Z" fill="#0066CC"/>
<path d="M466.526 133.578C469.688 131.467 483.721 134.812 501.867 125.882C504.102 124.663 506.344 124.164 508.336 124.164C517.063 124.164 514.82 134.07 522.795 134.07C529.006 134.07 536.995 128.863 541.731 128.863C549.15 128.863 559.861 152.166 559.861 163.072C559.861 175.71 540.728 183.4 518.059 183.4C484.968 183.4 465.028 154.648 465.028 136.053C465.036 134.57 465.789 134.07 466.526 133.578ZM520.803 165.054C531.765 165.054 539.983 160.097 539.983 157.115C539.983 156.139 538.493 155.39 535.247 155.39C532.008 155.39 525.531 155.148 513.323 153.157C502.848 151.424 494.881 147.458 491.893 147.458C490.897 147.458 490.396 147.95 490.396 148.692C490.396 155.148 502.361 165.054 520.803 165.054Z" fill="#0066CC"/>
<path d="M94.597 506.084C86.387 508.075 73.1826 520.941 73.1826 541.291C73.1826 565.563 99.3254 603.002 142.39 603.002C178.727 603.002 187.697 577.967 187.697 561.097C187.697 523.68 164.557 497.404 134.438 497.404C118.003 497.404 103.309 509.301 103.309 526.889C103.309 543.267 115.761 567.795 145.377 567.795C159.319 567.795 167.529 557.866 167.529 546.498C167.529 535.335 157.328 519.979 142.382 519.979C137.905 519.979 134.674 522.923 134.674 527.654C134.674 533.587 142.876 539.551 153.093 539.551C155.571 539.551 157.571 539.051 158.574 538.552C159.061 539.316 159.319 540.542 159.319 541.534C159.319 547.24 153.838 550.714 145.377 550.714C132.682 550.714 120.481 541.299 120.481 526.397C120.481 517.497 128.205 511.057 139.402 511.057C161.554 511.057 174.743 530.628 174.743 550.222C174.743 567.803 165.051 577.982 145.127 577.982C105.293 577.974 85.8929 542.275 94.597 506.084Z" fill="#0066CC"/>
<path d="M378.77 651.302C390.713 651.302 390.089 650.311 393.829 650.311C397.554 650.311 397.813 652.544 397.813 654.035C397.813 659.491 385.604 666.182 363.946 666.182C351.251 666.182 343.528 659.484 341.293 652.052C328.849 659.983 309.935 667.173 291.258 667.173C240.234 667.173 227.288 645.097 211.347 637.93C199.146 632.473 180.476 643.136 154.333 614.135C157.822 614.884 162.558 615.127 166.291 615.127C189.18 615.127 201.381 603.994 201.381 586.133C201.381 583.893 201.13 581.441 200.879 579.216C207.858 581.94 223.799 593.822 227.539 614.884C228.025 617.367 238.227 619.592 244.704 619.592C253.674 619.592 265.122 615.868 266.863 601.262C296.738 598.787 316.914 581.198 321.148 558.865C331.836 562.339 344.037 572.003 347.025 576.975C351.259 575.492 356.231 574.743 361.955 574.743C369.922 574.743 378.892 576.234 389.588 579.458C390.089 576.234 390.583 572.268 395.57 572.268C403.035 572.268 401.043 580.449 403.537 585.134C404.784 587.616 411.017 589.1 411.017 594.064C411.017 598.787 407.011 600.528 404.525 600.528C403.529 600.528 402.283 600.278 401.53 600.036C396.558 601.769 396.3 637.438 375.395 637.438C359.971 637.438 345.778 624.799 339.545 608.951C337.804 604.244 334.071 601.262 330.582 601.262C326.606 601.262 324.364 602.011 319.643 607.218C306.203 621.824 283.793 634.463 256.16 634.463C247.691 634.463 240.971 633.706 239.223 633.706C238.219 633.706 238.219 633.956 238.219 634.198C238.219 635.939 246.68 642.637 265.107 642.637C308.924 642.637 319.635 618.093 326.599 618.093C327.61 618.093 330.574 618.093 332.315 622.067C342.54 645.846 364.828 651.302 378.77 651.302ZM359.469 601.769C359.469 607.225 363.954 611.691 369.435 611.691C374.916 611.691 379.393 607.225 379.393 601.769C379.393 596.305 374.916 591.839 369.435 591.839C363.954 591.839 359.469 596.305 359.469 601.769Z" fill="#0066CC"/>
<path d="M556.63 478.074C553.141 478.074 549.408 480.807 549.408 487.512C549.408 494.921 555.14 499.644 558.371 501.12C560.119 502.126 562.864 503.118 565.577 503.118C572.807 503.118 578.546 501.12 578.546 495.163C578.539 487.512 567.318 478.074 556.63 478.074ZM529.773 493.43C524.543 493.43 495.625 531.846 476.993 531.846C472.516 531.846 468.775 523.423 468.775 517.005C468.775 513.531 471.01 511.049 479 509.301C521.806 499.636 512.334 467.653 548.899 467.653C569.059 467.653 591.5 481.306 591.5 512.025C591.5 544.743 544.725 585.376 537.747 585.376C532.015 585.376 525.789 577.202 525.789 571.753C525.789 570.02 526.542 567.788 531.521 565.805C555.391 556.375 569.067 534.571 569.067 523.408C569.067 520.925 567.827 518.473 564.589 518.473C560.362 518.473 542.24 559.599 522.049 559.599C508.085 559.599 493.884 546.99 493.884 541.027C493.884 531.097 534.258 512.775 534.258 498.879C534.25 493.665 531.764 493.43 529.773 493.43Z" fill="#0066CC"/>
<path d="M37.0894 168.528C37.0894 168.528 29.8753 173.97 20.9127 173.97C10.2169 173.97 1.74842 166.046 1.74842 154.891C1.74842 147.201 5.73179 139.277 14.9376 135.304C14.6944 136.795 14.6944 138.029 14.6944 139.52C14.6868 153.657 22.6535 164.305 37.0894 168.528ZM90.3632 216.117C84.8899 222.55 79.1581 233.463 79.1581 244.611C79.1581 257.992 87.3833 269.14 100.078 269.14C112.272 269.14 118.004 258.734 118.004 248.085C118.004 231.48 102.815 219.818 90.3632 216.117ZM7.72348 226.024C7.25216 226.788 6.9709 227.765 6.9709 228.756C6.9709 230.989 9.4643 233.463 11.6916 233.463C13.6833 233.463 14.93 232.971 15.9259 232.971C21.8933 232.971 28.621 237.179 38.3285 237.179C44.0451 237.179 50.7728 235.439 59.2336 231.238C77.1588 222.308 84.1373 200.254 84.1373 196.531C84.1373 191.816 80.3364 192.436 77.1588 188.1C73.9812 183.778 75.1975 179.956 73.1754 177.936C72.0275 176.778 68.4547 176.702 63.962 176.202C62.4644 176.044 60.4727 175.953 58.481 175.953C50.2786 175.953 40.5407 176.959 29.6092 183.892C8.01995 197.613 11.1975 220.325 7.72348 226.024ZM66.2197 195.289C67.9454 197.628 72.7041 200.504 72.7041 202.237C72.7041 205.696 70.6972 210.169 66.7215 210.169C58.0021 210.169 51.0388 197.03 51.0388 189.583C51.0388 184.883 53.7831 184.391 57.508 184.391C59.2488 184.391 60.0014 184.641 61.2405 185.383C63.4755 186.624 63.4755 191.573 66.2197 195.289ZM43.3077 225.532C35.0977 225.532 26.1352 215.375 26.1352 206.195C26.1352 201.246 29.8677 195.04 32.6043 195.04C33.6002 195.04 34.1019 195.789 34.3452 197.53C35.8351 209.669 43.8095 216.617 51.2821 220.075C52.0271 220.567 52.5288 220.817 52.5288 221.309C52.5288 223.05 47.7928 225.532 43.3077 225.532ZM64.4789 163.072C65.718 159.098 66.7138 154.156 66.7138 148.692C66.7138 136.803 61.2253 118.707 44.3036 118.707C34.6036 118.707 27.6175 126.389 27.6175 135.561C27.6175 155.148 47.2911 163.072 64.4789 163.072ZM0 262.207C0 281.037 5.73179 289.967 15.9335 289.967C23.9002 289.967 34.6036 284.261 47.2911 273.355C37.5912 275.588 30.1109 277.079 23.3985 277.079C14.4359 277.079 7.47262 273.605 0 262.207ZM8.71932 240.146C8.47606 241.395 8.47606 242.628 8.47606 243.862C8.47606 255.509 14.6868 261.958 22.9044 261.958C29.1075 261.958 36.3444 258.242 42.7984 250.053C40.077 250.545 36.831 250.794 33.8434 250.794C24.6452 250.794 14.6868 248.327 8.71932 240.146ZM69.709 236.68C63.9696 238.163 52.0271 245.103 52.0271 257.492C52.0271 266.408 58.9904 272.122 67.7097 272.122C72.1948 272.122 75.4256 271.123 77.4173 269.639C70.454 262.949 67.9605 255.509 67.9605 248.085C67.9605 242.871 68.7055 239.654 69.709 236.68ZM78.664 168.771C78.664 174.22 83.1414 178.692 88.6148 178.692C94.0957 178.692 98.5808 174.227 98.5808 168.771C98.5808 163.321 94.0957 158.849 88.6148 158.849C83.1414 158.849 78.664 163.321 78.664 168.771ZM91.6023 191.074C91.6023 196.531 96.095 200.996 101.584 200.996C107.049 200.996 111.534 196.531 111.534 191.074C111.534 185.632 107.049 181.167 101.584 181.167C96.0874 181.167 91.6023 185.632 91.6023 191.074Z" fill="#0066CC"/>
<path d="M479.988 312.763C479.988 307.813 484.473 303.598 489.392 303.598C494.88 303.598 499.115 307.813 499.115 312.763C499.115 318.462 494.873 322.435 489.392 322.435C484.473 322.435 479.988 318.462 479.988 312.763ZM392.582 236.43C392.582 241.879 397.075 246.344 402.533 246.344C408.029 246.344 412.514 241.879 412.514 236.43C412.514 230.989 408.022 226.523 402.533 226.523C397.075 226.523 392.582 230.989 392.582 236.43ZM384.129 271.372C384.129 279.062 390.583 285.495 398.314 285.495C406.022 285.495 412.514 279.062 412.514 271.372C412.514 263.698 406.022 257.243 398.314 257.243C390.583 257.243 384.129 263.698 384.129 271.372ZM415.502 255.509C415.502 263.948 422.229 270.631 430.645 270.631C439.106 270.631 445.856 263.948 445.856 255.509C445.856 247.086 439.106 240.396 430.645 240.396C422.229 240.396 415.502 247.086 415.502 255.509ZM416.756 223.292C416.756 228.506 420.99 232.729 426.167 232.729C431.397 232.729 435.631 228.506 435.631 223.292C435.631 218.1 431.39 213.884 426.167 213.884C420.99 213.884 416.756 218.1 416.756 223.292ZM461.797 199.512C461.797 204.704 466.031 208.92 471.269 208.92C476.499 208.92 480.741 204.704 480.741 199.512C480.741 194.298 476.499 190.083 471.269 190.083C466.031 190.083 461.797 194.298 461.797 199.512ZM443.112 229.997C443.112 238.663 450.333 245.845 459.053 245.845C467.78 245.845 475.009 238.663 475.009 229.997C475.009 221.309 467.787 214.134 459.053 214.134C450.333 214.134 443.112 221.309 443.112 229.997ZM417.493 287.985C417.493 293.441 421.979 297.891 427.414 297.891C432.895 297.891 437.388 293.441 437.388 287.985C437.388 282.528 432.895 278.07 427.414 278.07C421.979 278.07 417.493 282.528 417.493 287.985ZM450.09 268.148C450.09 273.605 454.568 278.07 460.064 278.07C465.537 278.07 470.022 273.605 470.022 268.148C470.022 262.707 465.537 258.242 460.064 258.242C454.568 258.242 450.09 262.707 450.09 268.148ZM440.877 303.098C440.877 312.513 448.593 320.202 458.064 320.202C467.529 320.202 475.267 312.513 475.267 303.098C475.267 293.683 467.529 285.994 458.064 285.994C448.593 285.994 440.877 293.683 440.877 303.098ZM476.742 282.021C476.742 288.476 481.98 293.683 488.411 293.683C494.888 293.683 500.118 288.476 500.118 282.021C500.118 275.588 494.888 270.381 488.411 270.381C481.98 270.381 476.742 275.588 476.742 282.021ZM475.997 250.794C475.997 256.508 480.741 261.216 486.404 261.216C492.144 261.216 496.88 256.508 496.88 250.794C496.88 245.103 492.144 240.396 486.404 240.396C480.741 240.396 475.997 245.103 475.997 250.794Z" fill="#0066CC"/>
<path d="M501.357 575.984C494.881 580.949 479.738 592.082 454.568 592.082C441.12 592.082 435.138 587.866 433.146 587.866C430.653 587.866 427.916 590.341 425.172 593.572C419.257 600.52 411.526 613.409 411.526 627.523C411.526 637.43 419.257 647.329 433.64 647.329C480.24 647.329 515.064 618.343 515.064 594.814C515.064 581.441 507.097 575.984 501.357 575.984ZM488.412 573.259C490.426 571.549 490.897 568.802 490.897 566.062V560.363C490.897 553.166 479.989 548.973 465.036 548.973C446.845 548.973 437.129 557.132 437.129 560.613V572.011C437.129 576.733 448.099 581.441 461.554 581.441C472.265 581.441 481.98 578.716 488.412 573.259ZM486.405 597.795C487.659 597.795 489.141 598.53 489.141 603.002C489.141 608.444 486.663 615.626 477.739 621.317C471.513 625.548 463.037 629.022 450.585 629.241C452.576 623.315 454.074 617.102 454.074 611.184C454.074 609.193 453.831 607.702 453.58 605.477H456.818C476.499 605.485 484.975 597.795 486.405 597.795Z" fill="#0066CC"/>
<path d="M391.336 294.932C394.072 315.987 422.48 305.331 422.48 330.851C422.48 334.574 421.484 340.038 421.484 344.738C421.484 350.195 421.971 354.902 426.167 354.902C430.394 354.902 431.397 351.936 431.397 347.962C431.397 343.989 430.394 339.039 430.394 336.315C430.394 327.634 436.627 325.659 440.375 325.659C449.839 325.659 457.061 335.323 471.269 335.323C468.023 351.186 435.137 346.971 435.137 364.325C435.137 373.005 443.857 374.973 449.588 374.973C454.819 374.973 456.567 374.232 456.567 369.781C456.567 367.292 456.065 364.567 456.065 362.834C456.065 361.835 456.818 360.843 458.065 360.843C463.561 360.843 490.395 381.172 490.395 387.377C490.395 393.069 462.048 398.768 453.83 398.768C451.337 398.768 450.835 397.034 450.835 396.043C450.835 394.31 455.069 389.103 455.069 386.136C455.069 383.904 451.337 382.413 441.363 382.413C436.627 382.413 433.138 382.912 433.138 386.636C433.138 393.311 444.1 401.5 444.1 407.683C444.1 412.648 441.112 415.622 433.138 415.622C426.41 415.622 416.239 410.407 416.239 401.742C416.239 394.802 423.423 387.877 423.423 383.654C423.423 382.413 422.473 380.43 419.485 380.43C410.257 380.43 407.771 404.709 375.144 407.441C380.374 402.733 384.844 397.526 384.844 386.886C384.844 381.679 383.612 377.456 383.612 371.764C383.612 364.325 387.086 360.601 392.065 360.601C401.271 360.601 405.756 373.482 411.754 373.482C415 373.482 418.482 370.523 418.482 366.058C418.482 347.221 382.122 349.945 382.122 323.426C382.13 316.237 384.608 307.314 391.336 294.932ZM510.076 367.549C510.076 373.732 512.083 380.922 518.309 380.922C523.539 380.922 528.017 373.005 528.017 364.325C528.017 354.41 526.276 346.721 526.276 342.748C526.276 341.022 527.029 340.281 528.017 340.281C531.757 340.53 535.239 350.687 539.237 350.687C543.722 350.687 550.404 342.498 553.133 342.498C553.886 342.498 554.129 343.497 554.129 343.739C554.129 347.463 548.397 355.652 548.397 358.868C548.397 361.593 562.848 362.085 562.848 364.567C562.848 368.291 547.698 368.291 540.484 371.515C533.513 374.481 529.256 378.197 529.256 383.162C529.256 388.119 534.243 389.103 541.221 389.103C557.854 389.103 569.561 380.188 573.293 380.188C574.038 380.188 574.533 380.672 574.533 381.421C574.533 383.904 566.072 392.077 566.072 395.801C566.072 400.009 581.519 404.951 581.268 407.441C581.024 408.182 580.021 408.425 578.28 408.425C575.528 408.425 571.302 407.683 568.056 407.683C566.064 407.683 564.323 407.925 563.563 408.916C561.837 410.907 564.065 424.045 560.598 424.045C557.352 424.045 548.884 394.802 529.758 394.802C527.013 394.802 525.022 397.034 525.022 400.75C525.022 410.657 534.737 422.055 543.958 427.512C548.131 430.244 555.117 432.968 555.117 434.467C555.117 437.426 539.222 434.709 539.222 439.658C539.222 444.124 541.214 450.829 541.214 454.78C541.214 456.021 540.963 457.497 539.473 457.497C536.485 457.497 529.248 443.874 525.767 443.874C522.779 443.874 516.302 452.048 513.558 452.048C512.813 452.048 512.319 451.306 512.319 450.572C512.319 444.865 521.54 431.984 521.54 419.338C521.54 413.389 520.787 400.501 513.558 400.501C507.583 400.501 500.848 409.916 497.86 419.338C496.127 424.787 497.366 445.857 493.375 445.857C489.643 445.857 490.639 431.735 485.644 431.735C481.972 431.735 473.998 438.417 471.254 438.417C470.752 438.417 470.25 438.168 470.25 437.676C470.25 434.709 477.48 425.037 477.48 423.054C477.48 419.338 461.037 418.846 461.037 415.872C461.037 414.131 467.514 412.897 473.489 411.898C486.153 409.666 504.831 400.501 504.831 387.62C504.831 373.248 490.882 367.042 481.714 361.093C476.978 358.119 471.748 355.652 471.748 353.669C471.748 351.678 477.723 351.678 480.216 351.678C483.949 351.678 487.643 351.429 487.643 348.462C487.643 346.222 487.142 341.772 487.142 338.298C487.142 335.815 487.385 333.833 488.396 333.833C492.128 333.833 497.359 345.972 499.86 345.972C503.835 345.972 509.316 336.058 513.064 336.058C514.295 336.058 514.805 336.807 514.805 339.032C514.82 348.205 510.076 358.611 510.076 367.549Z" fill="#0066CC"/>
<path d="M398.565 436.185C410.028 437.676 412.773 441.634 412.773 444.865C412.773 450.322 407.786 452.048 403.042 452.048C399.568 452.048 395.577 451.306 391.343 451.306C385.854 451.306 380.389 452.547 375.911 457.754C379.142 458.246 383.878 460.486 383.878 465.451C383.878 479.823 343.801 467.91 343.801 504.858C343.801 524.43 364.22 545.757 395.076 545.757C411.032 545.757 421.241 540.55 421.241 534.586C421.241 529.886 412.78 533.095 412.78 529.129C412.78 527.396 415.768 524.165 415.768 521.425C415.768 520.229 414.772 517.982 412.78 517.982C408.28 517.982 399.811 525.149 382.631 525.149C369.184 525.149 355.987 517.49 355.987 507.068C355.987 504.843 356.99 503.594 358.48 503.594C359.978 503.594 361.962 504.593 363.71 504.593C365.208 504.593 365.451 503.594 365.451 500.877C365.451 498.145 365.451 490.456 370.172 490.456C374.915 490.456 383.878 507.81 418.254 507.81C429.664 507.81 451.839 505.592 460.064 498.145C459.813 525.413 438.376 561.347 393.586 561.347C347.032 561.347 322.136 524.165 322.136 489.957C322.136 452.048 353.243 417.605 395.828 417.605C406.767 417.605 416.003 421.313 416.003 426.028C415.996 432.484 399.804 428.51 398.565 436.185ZM475.001 449.338C476.742 452.048 477.495 454.78 477.495 457.254C477.495 464.202 472.759 470.643 472.759 477.84C472.759 486.014 478.992 492.696 488.411 492.696C498.62 492.696 505.599 484.538 505.599 474.858C505.599 461.72 493.641 450.572 475.001 449.338ZM392.582 465.193C395.06 467.661 395.82 470.143 395.82 472.625C395.82 476.341 394.08 480.315 394.08 484.53C394.08 490.456 398.565 495.671 405.026 495.671C412.012 495.671 416.756 490.206 416.756 483.788C416.756 474.366 407.01 465.193 392.582 465.193ZM425.673 423.054C451.831 428.011 466.031 447.597 466.031 465.943C466.031 478.589 458.064 490.214 444.107 490.214C431.397 490.214 422.229 481.548 422.229 467.668C422.229 457.262 430.394 446.356 430.394 435.693C430.394 431.485 429.155 427.269 425.673 423.054ZM438.626 456.021C438.626 459.487 441.12 462.219 444.609 462.219C448.585 462.219 451.086 458.745 451.086 454.78C451.086 449.58 446.35 442.391 441.865 442.391C439.866 442.391 440.618 445.365 440.124 448.589C439.866 451.056 438.626 454.03 438.626 456.021Z" fill="#0066CC"/>
<path d="M163.812 200.996C172.273 200.996 181.973 155.39 181.973 147.701C181.973 145.718 181.235 144.227 179.494 144.227C171.771 144.227 161.075 187.608 161.075 197.28C161.068 199.013 161.562 200.996 163.812 200.996ZM224.801 214.626C231.012 214.626 237.983 190.824 237.983 175.953C237.983 172.729 237.489 169.27 235.984 169.27C230.754 169.27 222.042 193.806 222.042 207.186C222.05 212.393 223.304 214.626 224.801 214.626ZM184.2 192.565C186.937 192.565 190.426 189.575 196.918 182.408C197.404 179.184 197.404 176.202 197.404 172.486C197.404 167.537 195.413 162.08 192.433 162.08C184.953 162.08 181.228 181.909 181.228 187.123C181.235 190.082 182.718 192.565 184.2 192.565ZM218.317 182.408C218.317 178.185 217.314 177.194 216.325 177.194C213.832 177.194 211.103 180.176 207.12 186.866C207.614 195.789 209.111 199.755 211.597 199.755C214.334 199.755 218.317 191.074 218.317 182.408ZM237.489 153.157C253.924 153.157 261.382 167.287 261.382 183.15C261.382 190.082 259.405 200.254 256.167 200.254C252.928 200.254 253.43 194.548 252.928 189.341C252.434 182.65 251.18 181.167 248.937 181.167C244.703 181.167 241.974 191.074 241.974 200.254C241.974 205.945 242.97 212.393 247.44 212.393C249.933 212.393 252.176 211.152 253.673 209.669C252.677 221.059 244.201 230.988 232.259 230.988C210.35 230.988 202.133 205.453 199.655 190.582C186.458 204.462 174.264 214.626 152.348 214.626C131.945 214.626 122.731 199.755 122.731 185.632C122.731 181.409 124.221 170.511 129.459 170.511C135.677 170.511 130.204 190.824 142.397 190.824C145.393 190.824 150.851 188.342 153.853 180.176C155.594 175.211 156.59 170.019 156.59 165.546C156.59 158.849 155.1 154.648 150.121 154.648C145.879 154.648 140.649 157.857 138.908 159.598C144.891 141.752 159.327 132.587 175.237 132.587C194.926 132.587 205.371 149.933 205.371 169.27C205.371 171.987 205.12 174.961 204.619 177.693C213.087 163.813 224.802 153.157 237.489 153.157Z" fill="#0066CC"/>
<path d="M190.936 219.818C180.232 219.818 179.738 232.729 179.738 258.733C171.764 241.637 158.582 223.292 143.143 223.292C132.69 223.292 128.714 230.239 128.714 242.371C128.714 244.853 128.958 248.577 129.459 250.794C130.706 246.594 134.689 244.853 139.661 244.853C150.38 244.853 163.318 253.027 171.779 264.19C162.079 262.457 152.615 260.716 144.655 260.716C139.669 260.716 135.191 261.216 131.459 262.949C124.237 266.165 114.529 276.829 114.529 292.942C114.529 295.424 114.78 298.141 115.282 301.115C123.994 281.779 147.141 273.105 162.079 273.105C165.074 273.105 167.301 273.355 169.05 273.605C161.326 280.537 159.593 292.684 159.084 300.866C158.848 304.831 157.343 305.089 154.599 305.089C154.599 313.255 161.083 325.409 161.083 331.6C161.083 333.833 159.836 335.815 158.597 336.315C158.597 347.221 169.536 355.152 169.536 362.085C169.536 363.818 169.05 365.309 168.29 366.058C169.05 370.523 181.091 378.023 182.65 381.785C184.565 386.356 186.716 387.128 187.963 387.128C192.197 387.128 198.902 382.163 198.902 377.698C198.902 376.214 197.656 374.481 196.675 373.732C191.939 370.273 189.446 362.834 187.454 357.884C185.705 357.884 183.455 357.15 182.665 354.229C181.304 349.098 181.236 339.539 179.244 333.833C176.005 333.091 174.508 331.85 174.508 325.159C174.508 321.935 176.507 309.289 176.507 304.824C175.017 304.824 173.026 303.832 173.026 300.858C173.026 292.934 181 286.736 183.227 276.579C197.42 286.978 200.894 297.634 200.894 307.064C200.894 312.006 200.149 316.721 199.153 321.194C209.613 315.979 225.296 308.297 225.296 292.684C225.296 283.504 221.062 273.348 192.927 269.382C201.639 266.158 212.601 264.432 221.807 264.432C237.748 264.432 246.954 269.382 248.938 280.53C252.176 275.58 254.669 269.874 254.669 264.674C254.669 252.52 244.453 244.604 231.514 244.604C216.326 244.604 202.886 252.52 188.442 262.2C194.934 248.819 199.389 240.888 207.371 240.888C208.61 240.888 209.857 241.137 211.103 241.387C208.116 230.489 196.918 219.818 190.936 219.818Z" fill="#0066CC"/>
<path d="M610.375 398.518C622.842 398.518 632.801 414.623 632.801 433.468C632.801 453.538 623.329 475.358 606.445 490.214C606.194 456.763 565.068 467.419 565.068 443.14C565.068 432.734 572.556 425.786 581.526 425.786C589.501 425.786 595.727 428.019 600.212 432.491C595.727 428.268 593.484 422.312 593.484 416.621C593.484 407.183 599.467 398.518 610.375 398.518Z" fill="#0066CC"/>
<path d="M388.097 163.072C394.581 169.27 400.29 171.987 407.269 171.987C410.021 171.987 413.267 171.253 415.015 171.253C417.258 171.253 418.74 172.237 418.74 173.97C418.74 176.702 416.247 181.167 413.267 183.649C416.247 184.883 419.493 185.383 422.982 185.383C437.121 185.383 453.313 176.452 453.313 154.156C456.316 158.107 458.057 166.296 458.057 170.019C458.057 197.03 438.117 207.436 419.736 207.436C407.778 207.436 401.788 203.463 400.283 203.463C395.562 203.463 395.813 212.893 392.575 212.643C386.843 211.652 381.628 199.013 381.628 185.632C381.636 177.693 383.627 169.27 388.097 163.072ZM425.673 144.976C423.681 141.752 416.247 140.026 412.773 140.026C401.796 140.026 394.323 147.701 392.833 154.648C391.837 152.166 391.092 149.191 391.092 146.217C391.092 135.311 398.565 121.931 416.764 121.931C432.652 121.931 438.877 130.354 441.128 130.354C443.613 130.354 446.107 127.872 448.106 127.872C450.843 127.872 450.843 132.087 450.843 135.069C450.843 144.976 446.35 162.08 435.145 168.278C433.146 164.063 429.162 159.348 422.731 156.381C420.99 155.64 420.245 154.156 420.245 152.665C420.238 149.933 422.724 146.459 425.673 144.976Z" fill="#0066CC"/>
<path d="M215.079 90.9468C215.079 99.62 246.194 142.002 252.176 142.002C257.163 142.002 260.888 133.329 260.888 125.882C260.888 123.914 260.386 121.939 259.406 120.44C254.921 114.242 223.304 89.4559 216.326 89.4559C215.573 89.4559 215.079 90.2052 215.079 90.9468ZM32.1027 65.4194C32.1027 70.3841 13.1893 86.9811 6.47686 86.9811C3.99105 86.9811 3.23087 84.0144 3.23087 81.2898C3.23087 76.3402 5.47341 69.3927 8.21768 67.1525C11.4409 64.1782 18.9135 62.71 24.6377 62.71C28.1193 62.71 32.1027 63.4365 32.1027 65.4194ZM259.406 79.7989C259.406 64.9199 219.017 37.909 218.568 26.2692C218.523 25.202 219.108 24.1425 220.013 23.1965C226.931 15.931 255.658 10.6333 255.658 4.44253C255.658 1.23362 249.675 1.23362 246.688 1.23362C223.54 1.23362 189.681 9.657 189.681 17.8306C189.681 26.2692 220.051 46.8395 220.051 57.0035C220.051 59.7281 218.31 60.7195 215.566 60.7195C207.112 60.7195 188.686 50.5479 179.974 50.5479C175.991 50.5479 174.485 53.2724 174.485 57.2533C174.485 69.1429 188.678 91.6961 188.678 98.3712C188.678 99.1205 188.427 100.112 187.431 100.112C182.946 100.112 161.805 75.3412 154.325 75.3412C151.596 75.3412 151.338 79.0497 151.338 84.5063V92.9297C151.338 98.6285 151.087 102.102 148.365 102.102C141.873 102.102 138.893 84.0144 132.675 84.0144C126.198 84.0144 124.952 116.225 118.741 116.225C111.512 116.225 117.738 80.7828 110.767 80.7828C103.051 80.7828 94.3314 104.335 88.8505 104.335C86.8664 104.335 86.3723 102.345 86.3723 100.611C86.3723 93.4292 90.5913 81.7818 90.5913 74.8493C90.5913 71.368 89.5955 69.3927 86.6232 69.3927C78.8921 69.3927 61.9704 81.7818 55.5012 81.7818C54.5053 81.7818 53.2587 81.2898 53.2587 80.2908C53.2587 74.3574 80.3896 55.5126 80.3896 47.0892C80.3896 38.9005 43.0342 44.3647 43.0342 34.9347C43.0342 27.0108 69.6938 18.8296 69.6938 10.6484C69.6938 3.45866 38.0701 0.249756 25.8768 0.249756C11.1824 0.249756 3.22327 1.96773 3.22327 6.18321C3.22327 12.6313 36.5878 14.6217 36.5878 20.313C36.5878 25.7697 1.97656 40.3914 1.97656 48.8148C1.97656 56.2543 50.7652 49.3067 50.7652 57.0035C50.7652 65.4194 8.21008 101.845 8.21008 113.992C8.21008 116.724 10.2018 117.965 12.9308 117.965C25.8768 117.965 59.4694 93.4292 68.6904 93.4292C71.9288 93.4292 72.1796 97.3874 72.1796 100.861C72.1796 107.309 69.9447 117.216 69.9447 124.413C69.9447 130.105 71.4347 134.07 76.4063 134.07C85.6349 134.07 94.0806 118.457 100.322 118.457C108.281 118.457 103.552 164.305 115.503 164.305C125.704 164.305 129.931 114.741 136.408 114.741C142.884 114.741 148.122 129.113 154.09 129.113C161.547 129.113 158.065 104.085 166.04 104.085C174.744 104.085 199.64 133.828 210.845 133.828C214.327 133.828 215.566 131.096 215.566 127.622C215.566 114.484 197.154 84.7561 197.154 75.3412C197.154 72.8665 197.891 72.1172 200.628 72.1172C210.336 72.1172 238.729 85.4977 252.161 85.4977C256.677 85.4977 259.406 83.0229 259.406 79.7989ZM233.506 30.7268C233.506 35.1845 249.189 44.8566 256.418 44.8566C260.645 44.8566 261.891 39.1502 261.891 33.2016C261.891 25.7697 258.668 25.5199 252.184 25.5199C243.966 25.5199 233.506 27.7525 233.506 30.7268ZM175.002 5.44153C175.002 3.9506 167.537 2.45966 157.336 2.45966C141.151 2.45966 143.394 15.8629 130.95 15.8629C118.004 15.8629 121.227 1.96773 104.799 1.96773C94.8408 1.96773 85.6425 3.70841 85.6425 5.93346C85.6425 8.91532 97.3342 7.67414 97.3342 15.8629C97.3342 24.5285 72.1873 27.0108 72.1873 32.2178C72.1873 33.9509 74.1713 34.6925 76.6647 34.6925C82.1533 34.6925 90.8498 32.2178 97.0833 32.2178C100.573 32.2178 103.811 32.9519 103.811 36.1759C103.811 42.3743 90.3557 53.5298 90.3557 58.4869C90.3557 59.9778 91.5948 60.4773 92.8415 60.4773C97.8283 60.4773 106.297 47.8309 114.256 47.8309C127.453 47.8309 118.749 75.8332 125.955 75.8332C133.42 75.8332 130.189 48.3153 140.893 48.3153C149.62 48.3153 156.081 67.4022 162.056 67.4022C163.554 67.4022 164.793 66.1686 164.793 64.4279C164.793 59.2362 157.328 48.565 157.328 41.6326C157.328 37.4171 160.316 35.4267 164.299 35.4267C170.015 35.4267 177.739 38.9005 181.958 38.9005C183.448 38.9005 184.946 38.4085 184.946 36.6754C184.946 30.7268 162.809 24.2863 162.809 16.6046C162.817 8.91532 175.002 8.91532 175.002 5.44153Z" fill="#0066CC"/>
<path d="M616.351 45.6059C616.351 67.652 600.212 84.5063 571.051 89.2138C574.297 89.4559 577.285 89.4559 580.28 89.4559C614.359 89.4559 626.826 74.1001 626.826 61.219C626.826 54.0217 622.835 47.5887 616.351 45.6059ZM574.297 70.6263C574.297 53.0303 532.008 48.565 532.008 44.6069C532.008 41.3904 555.62 35.9262 567.821 35.6764C549.15 11.8896 522.544 14.372 522.544 10.1565C522.544 7.67415 542.468 2.70943 560.865 2.70943C576.297 2.70943 590.74 6.18322 590.74 17.8307C590.74 24.2863 585.51 30.9842 585.51 40.8833C585.51 46.34 588.232 51.0474 595.476 51.0474C603.215 51.0474 604.94 42.8738 604.94 34.1855C604.94 27.0109 603.701 21.5542 603.701 18.0804C603.701 7.67415 610.87 0.741699 621.087 0.741699C629.555 0.741699 631.555 4.44254 644.014 4.44254C637.279 8.4234 634.793 15.6132 634.793 19.0718C634.793 29.4932 641.536 36.6754 641.536 57.995C641.536 97.1376 604.697 111.018 559.618 111.018C547.227 111.018 534.008 110.026 521.046 108.051C519.062 107.801 518.561 107.309 518.561 106.068C518.561 102.844 536.258 101.103 536.258 85.2556C536.258 79.0497 534.258 73.1087 534.258 70.8836C534.258 69.6424 535.254 68.8932 536.258 68.8932C539.99 68.8932 547.478 83.2652 561.374 83.2652C565.069 83.2652 574.297 82.024 574.297 70.6263ZM614.861 15.8629C614.861 19.3216 617.597 22.0461 621.087 22.0461C624.576 22.0461 627.32 19.3216 627.32 15.8629C627.32 12.3891 624.576 9.65702 621.087 9.65702C617.597 9.65702 614.861 12.3891 614.861 15.8629Z" fill="#0066CC"/>
<path d="M592.74 244.853C592.74 239.654 579.527 239.162 578.288 224.533C578.03 222.308 577.285 218.35 574.541 218.35C570.063 218.35 573.545 231.98 568.566 231.98C557.117 231.98 553.385 209.669 549.15 209.669C548.147 209.669 546.961 210.411 546.961 213.385C546.961 216.117 547.463 217.85 547.463 221.059C547.463 224.291 546.703 226.523 543.723 226.523C536.995 226.523 531.012 210.903 525.281 210.903C524.034 210.903 522.795 211.652 522.795 212.893C522.795 215.867 527.766 221.309 527.766 224.041C527.766 229.997 511.575 226.766 511.575 231.73C511.575 233.963 513.809 234.697 516.805 234.697C522.042 234.697 530.267 232.48 534.502 232.48C536.995 232.48 540.728 232.971 540.728 236.18C540.728 239.654 531.757 244.112 531.757 247.336C531.757 248.827 533.247 249.561 534.494 249.561C541.222 249.561 553.126 237.921 561.595 237.921C563.085 237.921 566.817 238.663 566.817 240.895C566.817 244.112 558.356 249.803 558.356 254.518C558.356 255.759 559.117 257.243 560.606 257.243C565.061 257.243 571.044 245.603 579.52 245.603C582.758 245.603 587.494 246.844 589.995 246.844C591.995 246.844 592.74 245.603 592.74 244.853ZM599.216 365.059C603.207 352.677 608.194 343.989 616.351 330.609C608.194 326.408 586.506 317.47 586.506 302.848C586.506 285.744 607.92 272.364 612.36 272.364C614.359 272.364 614.853 274.105 614.853 277.329C614.853 286.244 610.619 300.616 610.619 308.305C610.619 315.238 615.104 321.943 619.088 321.943C623.322 321.943 635.029 307.072 635.029 292.442C635.029 266.165 611.858 258.242 604.69 258.242C597.962 258.242 585.753 269.14 557.11 269.14C503.6 269.14 491.392 216.367 491.392 193.307C491.392 192.315 491.627 192.065 491.878 192.065C493.125 192.065 498.37 198.521 515.299 198.521C524.019 198.521 531.993 196.281 544.703 196.281C574.525 196.281 587.737 216.866 606.18 243.12C617.331 250.053 643.999 261.216 643.999 292.692C643.999 320.452 614.352 335.815 607.175 365.558C618.578 364.325 625.313 343.989 637.02 343.989C643.003 343.989 645.74 348.704 645.74 356.151C645.74 367.042 639.506 383.412 627.548 393.568C627.792 392.577 627.792 391.328 627.792 389.845C627.792 382.912 625.063 373.006 617.073 373.006C604.674 373.006 600.691 386.386 593.72 397.526C586.491 372.256 576.776 349.446 559.352 335.566C541.723 321.443 511.316 329.118 511.316 303.348C511.316 296.4 515.809 286.494 515.809 278.562C515.809 275.838 515.307 273.355 513.802 271.372C537.725 280.303 529.249 296.151 543.966 312.513C553.126 322.934 578.532 332.841 593.226 375.715C593.469 374.481 593.72 371.265 593.72 369.032C593.72 332.349 544.947 296.4 540.712 281.529C569.045 284.753 574.024 291.701 587.479 328.875C590.238 336.565 599.216 355.652 599.216 365.059Z" fill="#0066CC"/>
<path d="M463.044 102.844C445.598 102.844 434.142 94.1784 434.142 89.7056C434.142 87.473 435.632 85.9972 437.638 85.9972C443.112 85.9972 455.069 94.4131 459.045 94.4131C460.056 94.4131 460.794 93.9287 460.794 92.4378C460.794 87.9725 456.559 80.5406 456.559 76.8322C456.559 75.8332 457.312 75.0991 458.802 75.0991C465.522 75.0991 475.488 77.8236 480.733 77.8236C482.474 77.8236 482.968 76.8322 482.968 75.8332C482.968 70.3841 466.769 59.7281 466.769 56.504C466.769 53.5297 486.898 49.0569 486.898 44.3647C486.898 39.4 459.532 42.8737 459.532 38.1588C459.532 34.6925 464.769 28.744 464.769 26.0194C464.769 24.7782 463.766 24.2863 462.033 24.2863C459.79 24.2863 447.832 28.9937 442.846 28.9937C440.36 28.9937 437.365 28.5018 437.365 25.0204C437.365 19.3216 447.08 13.1308 462.284 13.1308C486.891 13.1308 501.6 29.9851 501.6 58.2372C501.616 93.9287 476.499 102.844 463.044 102.844ZM414.514 55.7624C414.514 53.0302 404.783 47.8309 404.783 44.8566C404.783 44.3647 405.27 44.1149 406.022 44.1149C408.774 44.1149 413.51 45.1064 417.258 45.1064C420.496 45.1064 420.99 31.2263 423.438 31.2263C425.179 31.2263 428.159 44.3647 430.918 44.3647C434.149 44.3647 440.124 40.6411 442.618 40.6411C443.112 40.6411 443.613 40.8833 443.613 41.3904C443.613 43.1235 437.388 49.8062 437.388 51.7891C437.388 54.0217 451.345 56.7538 451.345 58.7367C451.345 61.219 437.137 60.9693 437.137 63.2019C437.137 64.9199 442.374 71.8675 442.374 74.1001C442.374 74.5996 442.116 74.8493 441.622 74.8493C439.623 74.8493 431.907 71.3679 429.664 71.3679C426.92 71.3679 422.488 81.532 420.245 81.532C419.5 81.532 419.006 80.5406 419.006 79.2994L418.505 69.3926C418.505 68.4012 418.018 67.4022 416.764 67.4022C413.769 67.4022 408.037 67.1525 406.281 67.1525C405.034 67.1525 404.54 66.9103 404.54 66.4108C404.532 64.4279 414.514 57.4955 414.514 55.7624ZM407.269 96.3884C411.268 96.3884 412.013 106.068 412.773 111.759C413.267 114.741 413.769 114.983 415.015 114.983C418.01 114.983 422.731 103.586 425.932 103.586C430.652 103.586 443.37 116.724 464.541 116.724C494.645 116.724 523.045 95.6467 523.045 58.4869C523.045 22.5456 497.617 1.4758 462.542 1.4758C445.864 1.4758 433.64 9.657 427.163 9.657C423.233 9.90675 417.258 0 414.255 0C413.016 0 411.769 2.45966 411.769 6.6827C411.769 9.41482 411.769 18.0804 408.774 18.0804C402.784 18.0804 379.644 0.991432 379.644 7.17464C379.644 12.881 395.06 30.2349 395.06 34.6925C395.06 39.1502 379.887 43.3732 379.887 46.34C379.887 51.7891 396.064 52.7805 396.064 59.7281C396.064 66.6605 379.127 72.1172 379.127 77.3241C379.127 81.532 396.064 78.5653 396.064 83.7646C396.064 88.964 383.62 106.318 383.62 111.26C383.62 112.509 383.863 112.509 384.851 112.509C389.587 112.509 403.78 96.3884 407.269 96.3884Z" fill="#0066CC"/>
<path d="M294.503 531.612C294.503 533.844 293.751 536.327 291.759 538.794C289.038 533.845 281.307 531.362 277.817 531.37C252.176 531.37 261.884 568.302 234.502 568.302C223.054 568.302 222.05 566.811 217.831 566.811C216.083 566.811 215.087 567.561 215.087 569.044C215.087 575.5 224.3 591.348 249.941 591.348C275.582 591.348 300.235 575.742 300.235 556.39C300.235 553.166 299.49 549.723 297.993 546.249C298.989 544.758 301.49 543.766 303.725 543.766C307.7 543.766 309.943 548.247 313.675 548.247C317.666 548.247 320.654 545.257 320.654 541.299C320.654 538.06 318.913 535.842 315.933 534.336C317.925 532.861 319.415 530.378 319.415 527.654C319.415 523.423 316.42 519.48 311.433 519.48C309.19 519.48 307.708 520.237 305.967 521.932C305.481 517.497 302.98 513.282 298.244 513.282C294.511 513.282 291.759 515.999 291.759 520.229C291.759 524.165 294.503 527.404 294.503 531.612Z" fill="#0066CC"/>
<path d="M158.08 485.529C177.997 490.456 187.956 501.119 189.94 513.766C191.931 525.905 194.417 535.835 199.146 540.777C205.371 547.732 217.572 553.892 228.283 553.892C237.246 553.892 244.453 550.948 244.453 542.76C244.453 533.829 232.259 513.758 214.334 513.758C212.593 513.758 210.351 514.016 207.857 514.016C205.615 514.016 202.376 513.524 200.392 511.783C196.416 508.302 195.162 489.714 187.697 478.566C179.487 466.17 170.525 462.696 158.331 462.696C149.627 462.696 139.904 467.396 139.904 474.343C139.904 478.581 142.147 481.548 158.08 485.529ZM227.538 541.034C220.058 541.034 208.861 533.087 208.861 528.622C208.861 524.899 212.35 522.916 215.071 522.916C221.305 522.916 232.495 530.62 232.495 537.061C232.502 538.794 231.256 541.034 227.538 541.034Z" fill="#0066CC"/>
<path d="M204.627 347.962C204.627 332.099 242.476 323.676 242.476 304.09C242.476 300.865 241.23 295.174 238.987 290.959C252.169 298.141 261.884 310.295 261.884 320.202C261.884 337.306 243.966 345.238 243.966 355.901C243.966 368.29 263.131 370.273 263.131 385.637C263.131 398.268 244.955 412.897 244.955 429.252C244.955 441.891 253.925 452.29 267.601 454.03C263.123 455.022 259.147 455.763 254.913 455.763C229.759 455.763 203.874 435.201 203.874 410.657C203.874 398.518 209.104 387.877 217.056 380.188C224.042 386.136 231.005 390.094 235.49 390.094C239.466 390.094 241.222 388.119 241.222 385.145C241.23 375.965 204.627 367.549 204.627 347.962ZM284.043 473.125C275.506 477.015 272.101 476.349 272.101 485.03C272.101 488.246 271.348 492.439 271.348 494.679C271.348 497.653 271.842 499.394 275.324 499.394C284.294 499.394 298.487 484.28 298.487 471.384C298.487 467.903 296.488 466.442 294.245 466.442C292.253 466.442 290.026 470.393 284.043 473.125ZM283.048 455.272C283.048 444.124 259.892 443.874 259.892 427.02C259.892 422.796 262.621 415.622 268.11 407.925C270.36 420.814 275.567 427.511 286.788 431.734C308.932 439.901 311.927 452.29 311.927 465.443C311.927 487.754 296.244 515.507 255.917 515.507C223.548 515.507 200.393 486.748 200.393 462.461C200.393 455.763 202.133 448.339 206.368 448.339C210.108 448.339 211.347 451.306 214.334 454.273C225.547 465.443 237.74 468.402 255.415 468.402C271.348 468.41 283.048 461.969 283.048 455.272Z" fill="#0066CC"/>
<path d="M106.752 460.645C107.361 465.822 103.643 470.491 98.4512 471.097C93.2515 471.702 88.5383 467.994 87.9454 462.825C87.3373 457.64 91.0546 452.956 96.2542 452.35C101.454 451.745 106.152 455.461 106.752 460.645ZM60.229 470.393C61.2857 478.854 69.2144 485.272 78.1618 484.28C81.3926 483.925 84.3877 483.047 86.387 481.806C88.3787 489.73 95.0607 494.831 104.092 493.65C113.26 492.462 119.493 485.272 118.505 476.099C118.246 473.632 117.752 472.126 117.015 470.393C117.015 470.393 118.224 470.264 119.136 470.098C128.129 468.402 134.187 461.22 133.435 452.547C132.447 443.624 124.404 437.002 116.034 438.031C112.788 438.425 109.793 439.658 107.794 441.392C105.544 433.967 98.5272 427.512 88.9488 429.086C80.2903 430.516 74.5661 437.827 75.4328 447.098C75.5772 448.604 75.9269 450.322 76.6795 452.048C76.6795 452.048 75.2123 452.267 74.2013 452.411C66.9339 453.486 59.0508 460.766 60.229 470.393Z" fill="#0066CC"/>
</svg>
